<?xml version="1.0" encoding="UTF-8" standalone="no"?>
<?xml-stylesheet href=".\..\styles\style.css" type="text/css"?>

<svg xmlns:svg="http://www.w3.org/2000/svg" xmlns="http://www.w3.org/2000/svg"
  xmlns:xlink="http://www.w3.org/1999/xlink" width="1024px" height="1024px"
  viewBox="0 0 1024 1024" version="1.1" id="SVGRoot">

  <title>Kandagal Map Callouts</title>

  <g id="map">
    <image id="map_kandagal" y="0" x="0" preserveAspectRatio="none"
      height="1024" width="1024"
      href=".\..\external\root\materials\overviews\kandagal.jpg" />
  </g>

  <g id="callouts">

    <g transform="translate(130 530) rotate(90)">
      <text class="callout anchor-middle">
        <tspan x="0" dy="0">SEC. Backyard</tspan>
      </text>
    </g>

    <g transform="translate(210 390)">
      <text class="callout anchor-middle">
        <tspan x="0" dy="0">Tank</tspan>
      </text>
    </g>

    <g transform="translate(335 338) rotate(-23)">
      <text class="callout anchor-middle">
        <tspan x="0" dy="0">AAV</tspan>
      </text>
    </g>

    <g transform="translate(210 680) rotate(3)">
      <text class="callout anchor-middle">
        <tspan x="0" dy="0">Farm</tspan>
      </text>
    </g>

    <g transform="translate(345 540)">
      <text class="callout medium-regular anchor-middle">
        <tspan x="0" dy="0">Bridge</tspan>
      </text>
    </g>

    <g transform="translate(430 400) rotate(28)">
      <text class="callout anchor-middle">
        <tspan x="0" dy="0">Office</tspan>
      </text>
    </g>

    <g transform="translate(370 445) rotate(14)">
      <text class="callout anchor-left">
        <tspan x="0" dy="0">Bush Hill</tspan>
      </text>
    </g>

    <g transform="translate(384 495)">
      <text class="callout anchor-left">
        <tspan x="0" dy="0">Bridge</tspan>
        <tspan x="0" dy="1.1em">Bldg.</tspan>
      </text>
    </g>

    <g transform="translate(560 220) rotate(0)">
      <text class="callout medium-regular anchor-middle">
        <tspan x="0" dy="0">Heli</tspan>
        <tspan x="0" dy="1.1em">Crash Site</tspan>
      </text>
    </g>

    <g transform="translate(808 208)">
      <text class="callout anchor-right">
        <tspan x="0" dy="0">A. Stairs</tspan>
      </text>
    </g>

    <g transform="translate(880 252)">
      <text class="callout anchor-left">
        <tspan x="0" dy="0">Intel</tspan>
      </text>
    </g>

    <g transform="translate(645 430)">
      <text class="callout anchor-left">
        <tspan x="0" dy="0">Bunker</tspan>
      </text>
    </g>

    <g transform="translate(530 355) rotate(48)">
      <text class="callout anchor-middle">
        <tspan x="0" dy="0">Checkpoint</tspan>
      </text>
    </g>

    <g transform="translate(530 460) rotate(-43)">
      <text class="callout anchor-middle">
        <tspan x="0" dy="0">Playground</tspan>
      </text>
    </g>

    <g transform="translate(480 560)">
      <text class="callout anchor-middle">
        <tspan x="0" dy="0">Ruins</tspan>
      </text>
    </g>

    <g transform="translate(570 520)">
      <text class="callout anchor-middle">
        <tspan x="0" dy="0">Construction</tspan>
      </text>
    </g>

    <g transform="translate(675 600)">
      <text class="callout anchor-right">
        <tspan x="0" dy="0">Auto</tspan>
        <tspan x="0" dy="1.1em">Garage</tspan>
      </text>
    </g>

    <g transform="translate(526 593) rotate(-25)">
      <text class="callout anchor-middle">
        <tspan x="0" dy="0">Gas</tspan>
      </text>
    </g>

    <g transform="translate(470 627) rotate(43)">
      <text class="callout anchor-middle">
        <tspan x="0" dy="0">Porch</tspan>
      </text>
    </g>

    <g transform="translate(448 655) rotate(43)">
      <text class="callout anchor-middle">
        <tspan x="0" dy="0">Deck</tspan>
      </text>
    </g>

    <g transform="translate(400 750)">
      <text class="callout medium anchor-middle">
        <tspan x="0" dy="0">River</tspan>
      </text>
    </g>

    <g transform="translate(595 695)">
      <text class="callout anchor-left">
        <tspan x="0" dy="0">Studio</tspan>
        <tspan x="0" dy="1.1em">House</tspan>
      </text>
    </g>

    <g transform="translate(595 755) rotate(90)">
      <text class="callout anchor-left">
        <tspan x="0" dy="0">Longhouse</tspan>
      </text>
    </g>

    <g transform="translate(510 760) rotate(90)">
      <text class="callout anchor-left">
        <tspan x="0" dy="0">Balcony</tspan>
      </text>
    </g>

    <g transform="translate(675 880)">
      <text class="callout anchor-right" style="">
        <tspan x="0" dy="0">Horseshoe</tspan>
      </text>

      <g transform="translate(-60 -37)">
        <defs>
          <filter id="shadow">
            <feGaussianBlur in="SourceGraphic" stdDeviation="3" />
          </filter>
        </defs>
        <path style="
  fill-opacity: 0; stroke-width: 4; stroke: #b56f2dc9; filter: url(#shadow);"
          d="m 64.785088,0.13128128 c 0,0 9.33995,35.54237972 34.25,30.49999972 36.371262,-7.3624 42.750002,-9.25 42.750002,14.75 0,24.46681 -10.31059,35.1819 -40.75,35.25 -111.750002,0.25 -35.000002,-20 -101.00000262,-18" />
        <path style="
  fill-opacity: 0; stroke-width: 2; stroke-opacity: 0.5; stroke: #e4ba92;"
          d="m 64.785088,0.13128128 c 0,0 9.33995,35.54237972 34.25,30.49999972 36.371262,-7.3624 42.750002,-9.25 42.750002,14.75 0,24.46681 -10.31059,35.1819 -40.75,35.25 -111.750002,0.25 -35.000002,-20 -101.00000262,-18" />
      </g>
    </g>

    <g transform="translate(490 870) rotate(-45)">
      <text class="callout anchor-middle">
        <tspan x="0" dy="0">Rocks</tspan>
      </text>
    </g>
  </g>
</svg>
